<?xml version="1.0" encoding="utf-8"?>
<!-- Generator: Adobe Illustrator 16.0.0, SVG Export Plug-In . SVG Version: 6.00 Build 0)  -->
<!DOCTYPE svg PUBLIC "-//W3C//DTD SVG 1.1//EN" "http://www.w3.org/Graphics/SVG/1.1/DTD/svg11.dtd">
<svg version="1.1" id="Capa_1" xmlns="http://www.w3.org/2000/svg" xmlns:xlink="http://www.w3.org/1999/xlink" x="0px" y="0px"
	 width="100px" height="30px" viewBox="0 0 100 30" enable-background="new 0 0 100 30" xml:space="preserve">
<polygon fill="#F8D280" points="14.104,10.868 11.152,4.892 8.203,10.868 1.609,11.826 6.381,16.478 5.254,23.047 11.152,19.946 
	17.053,23.047 15.926,16.478 20.697,11.826 "/>
<polygon fill="#F8D280" points="36.143,10.868 33.191,4.892 30.244,10.868 23.648,11.826 28.42,16.478 27.293,23.047 33.191,19.946 
	39.092,23.047 37.965,16.478 42.736,11.826 "/>
<polygon fill="#F8D280" points="55.23,10.868 52.279,4.892 49.332,10.868 42.736,11.826 47.508,16.478 46.381,23.047 52.279,19.946 
	58.181,23.047 57.054,16.478 61.824,11.826 "/>
<polygon fill="#B0AFAF" points="74.318,10.868 71.367,4.892 68.418,10.868 61.824,11.826 66.596,16.478 65.47,23.047 71.367,19.946 
	77.269,23.047 76.142,16.478 80.912,11.826 "/>
<polygon fill="#B0AFAF" points="93.406,10.868 90.455,4.892 87.506,10.868 80.912,11.826 85.684,16.478 84.558,23.047 
	90.455,19.946 96.356,23.047 95.229,16.478 100,11.826 "/>
</svg>
